<mxfile host="app.diagrams.net" modified="2023-04-08T12:43:15.609Z" agent="Mozilla/5.0 (Windows NT 10.0; Win64; x64) AppleWebKit/537.36 (KHTML, like Gecko) Chrome/111.0.0.0 Safari/537.36" etag="TgAK95ciWcqaC7Eziz6t" version="21.1.5" type="device">
  <diagram name="Страница 1" id="XWZ9HzhF4-gvC73t8PM1">
    <mxGraphModel dx="2220" dy="2578" grid="1" gridSize="10" guides="1" tooltips="1" connect="1" arrows="1" fold="1" page="1" pageScale="1" pageWidth="827" pageHeight="1169" math="0" shadow="0">
      <root>
        <mxCell id="0" />
        <mxCell id="1" parent="0" />
        <mxCell id="Ydeme7hIcuhJ-TMUcf0_-15" style="edgeStyle=orthogonalEdgeStyle;rounded=0;orthogonalLoop=1;jettySize=auto;html=1;entryX=0;entryY=0.5;entryDx=0;entryDy=0;" edge="1" parent="1" source="Ydeme7hIcuhJ-TMUcf0_-3" target="Ydeme7hIcuhJ-TMUcf0_-13">
          <mxGeometry relative="1" as="geometry" />
        </mxCell>
        <mxCell id="Ydeme7hIcuhJ-TMUcf0_-32" style="edgeStyle=orthogonalEdgeStyle;rounded=0;orthogonalLoop=1;jettySize=auto;html=1;entryX=0;entryY=0.5;entryDx=0;entryDy=0;" edge="1" parent="1" source="Ydeme7hIcuhJ-TMUcf0_-3" target="Ydeme7hIcuhJ-TMUcf0_-31">
          <mxGeometry relative="1" as="geometry" />
        </mxCell>
        <mxCell id="Ydeme7hIcuhJ-TMUcf0_-33" style="edgeStyle=orthogonalEdgeStyle;rounded=0;orthogonalLoop=1;jettySize=auto;html=1;entryX=0;entryY=0.5;entryDx=0;entryDy=0;" edge="1" parent="1" source="Ydeme7hIcuhJ-TMUcf0_-3" target="Ydeme7hIcuhJ-TMUcf0_-25">
          <mxGeometry relative="1" as="geometry" />
        </mxCell>
        <mxCell id="Ydeme7hIcuhJ-TMUcf0_-34" style="edgeStyle=orthogonalEdgeStyle;rounded=0;orthogonalLoop=1;jettySize=auto;html=1;entryX=0;entryY=0.5;entryDx=0;entryDy=0;" edge="1" parent="1" source="Ydeme7hIcuhJ-TMUcf0_-3" target="Ydeme7hIcuhJ-TMUcf0_-27">
          <mxGeometry relative="1" as="geometry" />
        </mxCell>
        <mxCell id="Ydeme7hIcuhJ-TMUcf0_-35" style="edgeStyle=orthogonalEdgeStyle;rounded=0;orthogonalLoop=1;jettySize=auto;html=1;entryX=0;entryY=0.5;entryDx=0;entryDy=0;" edge="1" parent="1" source="Ydeme7hIcuhJ-TMUcf0_-3" target="Ydeme7hIcuhJ-TMUcf0_-29">
          <mxGeometry relative="1" as="geometry" />
        </mxCell>
        <mxCell id="Ydeme7hIcuhJ-TMUcf0_-36" style="edgeStyle=orthogonalEdgeStyle;rounded=0;orthogonalLoop=1;jettySize=auto;html=1;entryX=0;entryY=0.5;entryDx=0;entryDy=0;" edge="1" parent="1" source="Ydeme7hIcuhJ-TMUcf0_-3" target="Ydeme7hIcuhJ-TMUcf0_-26">
          <mxGeometry relative="1" as="geometry" />
        </mxCell>
        <mxCell id="Ydeme7hIcuhJ-TMUcf0_-37" style="edgeStyle=orthogonalEdgeStyle;rounded=0;orthogonalLoop=1;jettySize=auto;html=1;entryX=0;entryY=0.5;entryDx=0;entryDy=0;" edge="1" parent="1" source="Ydeme7hIcuhJ-TMUcf0_-3" target="Ydeme7hIcuhJ-TMUcf0_-30">
          <mxGeometry relative="1" as="geometry" />
        </mxCell>
        <mxCell id="Ydeme7hIcuhJ-TMUcf0_-38" style="edgeStyle=orthogonalEdgeStyle;rounded=0;orthogonalLoop=1;jettySize=auto;html=1;entryX=0;entryY=0.5;entryDx=0;entryDy=0;" edge="1" parent="1" source="Ydeme7hIcuhJ-TMUcf0_-3" target="Ydeme7hIcuhJ-TMUcf0_-28">
          <mxGeometry relative="1" as="geometry" />
        </mxCell>
        <mxCell id="Ydeme7hIcuhJ-TMUcf0_-3" value="Пользователь" style="shape=umlActor;verticalLabelPosition=bottom;verticalAlign=top;html=1;outlineConnect=0;" vertex="1" parent="1">
          <mxGeometry x="1230" y="265" width="50" height="90" as="geometry" />
        </mxCell>
        <mxCell id="Ydeme7hIcuhJ-TMUcf0_-13" value="&lt;span style=&quot;font-size: 14px;&quot;&gt;Переход на веб-страницу прохождения тестирования на знание русского языка&lt;/span&gt;" style="ellipse;whiteSpace=wrap;html=1;" vertex="1" parent="1">
          <mxGeometry x="1390" y="-75" width="210" height="110" as="geometry" />
        </mxCell>
        <mxCell id="Ydeme7hIcuhJ-TMUcf0_-25" value="&lt;span style=&quot;font-size: 14px;&quot;&gt;Выбор уровня обучения&lt;/span&gt;" style="ellipse;whiteSpace=wrap;html=1;" vertex="1" parent="1">
          <mxGeometry x="1390" y="55" width="210" height="110" as="geometry" />
        </mxCell>
        <mxCell id="Ydeme7hIcuhJ-TMUcf0_-26" value="&lt;span style=&quot;font-size: 14px;&quot;&gt;Получение полных данных о выбранной программе обучения&lt;/span&gt;" style="ellipse;whiteSpace=wrap;html=1;" vertex="1" parent="1">
          <mxGeometry x="1390" y="445" width="210" height="110" as="geometry" />
        </mxCell>
        <mxCell id="Ydeme7hIcuhJ-TMUcf0_-27" value="&lt;span style=&quot;font-size: 14px;&quot;&gt;Выбор университета&lt;/span&gt;" style="ellipse;whiteSpace=wrap;html=1;" vertex="1" parent="1">
          <mxGeometry x="1390" y="186.42000000000002" width="210" height="110" as="geometry" />
        </mxCell>
        <mxCell id="Ydeme7hIcuhJ-TMUcf0_-28" value="&lt;span style=&quot;font-size: 14px;&quot;&gt;Выход в главное меню&lt;/span&gt;" style="ellipse;whiteSpace=wrap;html=1;" vertex="1" parent="1">
          <mxGeometry x="1390" y="705" width="210" height="110" as="geometry" />
        </mxCell>
        <mxCell id="Ydeme7hIcuhJ-TMUcf0_-29" value="&lt;span style=&quot;font-size: 14px;&quot;&gt;Выбор программы обучения&lt;/span&gt;" style="ellipse;whiteSpace=wrap;html=1;" vertex="1" parent="1">
          <mxGeometry x="1390" y="315" width="210" height="110" as="geometry" />
        </mxCell>
        <mxCell id="Ydeme7hIcuhJ-TMUcf0_-30" value="&lt;span style=&quot;font-size: 14px;&quot;&gt;Переход в почтовое приложение или на веб-сайт для последующей связи с куратором&lt;/span&gt;" style="ellipse;whiteSpace=wrap;html=1;" vertex="1" parent="1">
          <mxGeometry x="1390" y="575" width="210" height="110" as="geometry" />
        </mxCell>
        <mxCell id="Ydeme7hIcuhJ-TMUcf0_-31" value="&lt;span style=&quot;font-size: 14px;&quot;&gt;Переход на веб-сайт проекта&lt;/span&gt;" style="ellipse;whiteSpace=wrap;html=1;" vertex="1" parent="1">
          <mxGeometry x="1390" y="-205" width="210" height="110" as="geometry" />
        </mxCell>
        <mxCell id="Ydeme7hIcuhJ-TMUcf0_-39" style="edgeStyle=orthogonalEdgeStyle;rounded=0;orthogonalLoop=1;jettySize=auto;html=1;entryX=0;entryY=0.5;entryDx=0;entryDy=0;" edge="1" parent="1" source="Ydeme7hIcuhJ-TMUcf0_-47" target="Ydeme7hIcuhJ-TMUcf0_-48">
          <mxGeometry relative="1" as="geometry" />
        </mxCell>
        <mxCell id="Ydeme7hIcuhJ-TMUcf0_-40" style="edgeStyle=orthogonalEdgeStyle;rounded=0;orthogonalLoop=1;jettySize=auto;html=1;entryX=0;entryY=0.5;entryDx=0;entryDy=0;" edge="1" parent="1" source="Ydeme7hIcuhJ-TMUcf0_-47" target="Ydeme7hIcuhJ-TMUcf0_-55">
          <mxGeometry relative="1" as="geometry" />
        </mxCell>
        <mxCell id="Ydeme7hIcuhJ-TMUcf0_-41" style="edgeStyle=orthogonalEdgeStyle;rounded=0;orthogonalLoop=1;jettySize=auto;html=1;entryX=0;entryY=0.5;entryDx=0;entryDy=0;" edge="1" parent="1" source="Ydeme7hIcuhJ-TMUcf0_-47" target="Ydeme7hIcuhJ-TMUcf0_-49">
          <mxGeometry relative="1" as="geometry" />
        </mxCell>
        <mxCell id="Ydeme7hIcuhJ-TMUcf0_-42" style="edgeStyle=orthogonalEdgeStyle;rounded=0;orthogonalLoop=1;jettySize=auto;html=1;entryX=0;entryY=0.5;entryDx=0;entryDy=0;" edge="1" parent="1" source="Ydeme7hIcuhJ-TMUcf0_-47" target="Ydeme7hIcuhJ-TMUcf0_-51">
          <mxGeometry relative="1" as="geometry" />
        </mxCell>
        <mxCell id="Ydeme7hIcuhJ-TMUcf0_-43" style="edgeStyle=orthogonalEdgeStyle;rounded=0;orthogonalLoop=1;jettySize=auto;html=1;entryX=0;entryY=0.5;entryDx=0;entryDy=0;" edge="1" parent="1" source="Ydeme7hIcuhJ-TMUcf0_-47" target="Ydeme7hIcuhJ-TMUcf0_-53">
          <mxGeometry relative="1" as="geometry" />
        </mxCell>
        <mxCell id="Ydeme7hIcuhJ-TMUcf0_-44" style="edgeStyle=orthogonalEdgeStyle;rounded=0;orthogonalLoop=1;jettySize=auto;html=1;entryX=0;entryY=0.5;entryDx=0;entryDy=0;" edge="1" parent="1" source="Ydeme7hIcuhJ-TMUcf0_-47" target="Ydeme7hIcuhJ-TMUcf0_-50">
          <mxGeometry relative="1" as="geometry" />
        </mxCell>
        <mxCell id="Ydeme7hIcuhJ-TMUcf0_-45" style="edgeStyle=orthogonalEdgeStyle;rounded=0;orthogonalLoop=1;jettySize=auto;html=1;entryX=0;entryY=0.5;entryDx=0;entryDy=0;" edge="1" parent="1" source="Ydeme7hIcuhJ-TMUcf0_-47" target="Ydeme7hIcuhJ-TMUcf0_-54">
          <mxGeometry relative="1" as="geometry" />
        </mxCell>
        <mxCell id="Ydeme7hIcuhJ-TMUcf0_-46" style="edgeStyle=orthogonalEdgeStyle;rounded=0;orthogonalLoop=1;jettySize=auto;html=1;entryX=0;entryY=0.5;entryDx=0;entryDy=0;" edge="1" parent="1" source="Ydeme7hIcuhJ-TMUcf0_-47" target="Ydeme7hIcuhJ-TMUcf0_-52">
          <mxGeometry relative="1" as="geometry" />
        </mxCell>
        <mxCell id="Ydeme7hIcuhJ-TMUcf0_-59" style="edgeStyle=orthogonalEdgeStyle;rounded=0;orthogonalLoop=1;jettySize=auto;html=1;entryX=0;entryY=0.5;entryDx=0;entryDy=0;" edge="1" parent="1" source="Ydeme7hIcuhJ-TMUcf0_-47" target="Ydeme7hIcuhJ-TMUcf0_-58">
          <mxGeometry relative="1" as="geometry" />
        </mxCell>
        <mxCell id="Ydeme7hIcuhJ-TMUcf0_-60" style="edgeStyle=orthogonalEdgeStyle;rounded=0;orthogonalLoop=1;jettySize=auto;html=1;entryX=0;entryY=0.5;entryDx=0;entryDy=0;" edge="1" parent="1" source="Ydeme7hIcuhJ-TMUcf0_-47" target="Ydeme7hIcuhJ-TMUcf0_-57">
          <mxGeometry relative="1" as="geometry" />
        </mxCell>
        <mxCell id="Ydeme7hIcuhJ-TMUcf0_-91" style="edgeStyle=orthogonalEdgeStyle;rounded=0;orthogonalLoop=1;jettySize=auto;html=1;entryX=0;entryY=0.5;entryDx=0;entryDy=0;" edge="1" parent="1" source="Ydeme7hIcuhJ-TMUcf0_-47" target="Ydeme7hIcuhJ-TMUcf0_-74">
          <mxGeometry relative="1" as="geometry">
            <Array as="points">
              <mxPoint x="450" y="305" />
              <mxPoint x="450" y="-215" />
            </Array>
          </mxGeometry>
        </mxCell>
        <mxCell id="Ydeme7hIcuhJ-TMUcf0_-92" style="edgeStyle=orthogonalEdgeStyle;rounded=0;orthogonalLoop=1;jettySize=auto;html=1;entryX=0;entryY=0.5;entryDx=0;entryDy=0;" edge="1" parent="1" source="Ydeme7hIcuhJ-TMUcf0_-47" target="Ydeme7hIcuhJ-TMUcf0_-75">
          <mxGeometry relative="1" as="geometry">
            <Array as="points">
              <mxPoint x="450" y="305" />
              <mxPoint x="450" y="-85" />
            </Array>
          </mxGeometry>
        </mxCell>
        <mxCell id="Ydeme7hIcuhJ-TMUcf0_-93" style="edgeStyle=orthogonalEdgeStyle;rounded=0;orthogonalLoop=1;jettySize=auto;html=1;entryX=0;entryY=0.5;entryDx=0;entryDy=0;" edge="1" parent="1" source="Ydeme7hIcuhJ-TMUcf0_-47" target="Ydeme7hIcuhJ-TMUcf0_-76">
          <mxGeometry relative="1" as="geometry">
            <Array as="points">
              <mxPoint x="450" y="305" />
              <mxPoint x="450" y="45" />
            </Array>
          </mxGeometry>
        </mxCell>
        <mxCell id="Ydeme7hIcuhJ-TMUcf0_-94" style="edgeStyle=orthogonalEdgeStyle;rounded=0;orthogonalLoop=1;jettySize=auto;html=1;entryX=0;entryY=0.5;entryDx=0;entryDy=0;" edge="1" parent="1" source="Ydeme7hIcuhJ-TMUcf0_-47" target="Ydeme7hIcuhJ-TMUcf0_-78">
          <mxGeometry relative="1" as="geometry">
            <Array as="points">
              <mxPoint x="450" y="305" />
              <mxPoint x="450" y="176" />
            </Array>
          </mxGeometry>
        </mxCell>
        <mxCell id="Ydeme7hIcuhJ-TMUcf0_-95" style="edgeStyle=orthogonalEdgeStyle;rounded=0;orthogonalLoop=1;jettySize=auto;html=1;entryX=0;entryY=0.5;entryDx=0;entryDy=0;" edge="1" parent="1" source="Ydeme7hIcuhJ-TMUcf0_-47" target="Ydeme7hIcuhJ-TMUcf0_-77">
          <mxGeometry relative="1" as="geometry" />
        </mxCell>
        <mxCell id="Ydeme7hIcuhJ-TMUcf0_-96" style="edgeStyle=orthogonalEdgeStyle;rounded=0;orthogonalLoop=1;jettySize=auto;html=1;entryX=0;entryY=0.5;entryDx=0;entryDy=0;" edge="1" parent="1" source="Ydeme7hIcuhJ-TMUcf0_-47" target="Ydeme7hIcuhJ-TMUcf0_-79">
          <mxGeometry relative="1" as="geometry">
            <Array as="points">
              <mxPoint x="450" y="305" />
              <mxPoint x="450" y="435" />
            </Array>
          </mxGeometry>
        </mxCell>
        <mxCell id="Ydeme7hIcuhJ-TMUcf0_-97" style="edgeStyle=orthogonalEdgeStyle;rounded=0;orthogonalLoop=1;jettySize=auto;html=1;entryX=0;entryY=0.5;entryDx=0;entryDy=0;" edge="1" parent="1" source="Ydeme7hIcuhJ-TMUcf0_-47" target="Ydeme7hIcuhJ-TMUcf0_-80">
          <mxGeometry relative="1" as="geometry">
            <Array as="points">
              <mxPoint x="450" y="305" />
              <mxPoint x="450" y="565" />
            </Array>
          </mxGeometry>
        </mxCell>
        <mxCell id="Ydeme7hIcuhJ-TMUcf0_-98" style="edgeStyle=orthogonalEdgeStyle;rounded=0;orthogonalLoop=1;jettySize=auto;html=1;entryX=0;entryY=0.5;entryDx=0;entryDy=0;" edge="1" parent="1" source="Ydeme7hIcuhJ-TMUcf0_-47" target="Ydeme7hIcuhJ-TMUcf0_-71">
          <mxGeometry relative="1" as="geometry">
            <Array as="points">
              <mxPoint x="450" y="305" />
              <mxPoint x="450" y="695" />
            </Array>
          </mxGeometry>
        </mxCell>
        <mxCell id="Ydeme7hIcuhJ-TMUcf0_-99" style="edgeStyle=orthogonalEdgeStyle;rounded=0;orthogonalLoop=1;jettySize=auto;html=1;entryX=0;entryY=0.5;entryDx=0;entryDy=0;" edge="1" parent="1" source="Ydeme7hIcuhJ-TMUcf0_-47" target="Ydeme7hIcuhJ-TMUcf0_-73">
          <mxGeometry relative="1" as="geometry">
            <Array as="points">
              <mxPoint x="450" y="305" />
              <mxPoint x="450" y="830" />
            </Array>
          </mxGeometry>
        </mxCell>
        <mxCell id="Ydeme7hIcuhJ-TMUcf0_-100" style="edgeStyle=orthogonalEdgeStyle;rounded=0;orthogonalLoop=1;jettySize=auto;html=1;entryX=0;entryY=0.5;entryDx=0;entryDy=0;" edge="1" parent="1" source="Ydeme7hIcuhJ-TMUcf0_-47" target="Ydeme7hIcuhJ-TMUcf0_-72">
          <mxGeometry relative="1" as="geometry">
            <Array as="points">
              <mxPoint x="450" y="305" />
              <mxPoint x="450" y="970" />
            </Array>
          </mxGeometry>
        </mxCell>
        <mxCell id="Ydeme7hIcuhJ-TMUcf0_-104" style="edgeStyle=orthogonalEdgeStyle;rounded=0;orthogonalLoop=1;jettySize=auto;html=1;entryX=0;entryY=0.5;entryDx=0;entryDy=0;" edge="1" parent="1" source="Ydeme7hIcuhJ-TMUcf0_-47" target="Ydeme7hIcuhJ-TMUcf0_-101">
          <mxGeometry relative="1" as="geometry" />
        </mxCell>
        <mxCell id="Ydeme7hIcuhJ-TMUcf0_-105" style="edgeStyle=orthogonalEdgeStyle;rounded=0;orthogonalLoop=1;jettySize=auto;html=1;entryX=0;entryY=0.5;entryDx=0;entryDy=0;" edge="1" parent="1" source="Ydeme7hIcuhJ-TMUcf0_-47" target="Ydeme7hIcuhJ-TMUcf0_-102">
          <mxGeometry relative="1" as="geometry">
            <Array as="points">
              <mxPoint x="450" y="305" />
              <mxPoint x="450" y="1114" />
            </Array>
          </mxGeometry>
        </mxCell>
        <mxCell id="Ydeme7hIcuhJ-TMUcf0_-47" value="Администратор" style="shape=umlActor;verticalLabelPosition=bottom;verticalAlign=top;html=1;outlineConnect=0;" vertex="1" parent="1">
          <mxGeometry x="340" y="260" width="50" height="90" as="geometry" />
        </mxCell>
        <mxCell id="Ydeme7hIcuhJ-TMUcf0_-48" value="&lt;span style=&quot;font-size: 14px;&quot;&gt;Переход на веб-страницу прохождения тестирования на знание русского языка&lt;/span&gt;" style="ellipse;whiteSpace=wrap;html=1;" vertex="1" parent="1">
          <mxGeometry x="510" y="-205" width="210" height="110" as="geometry" />
        </mxCell>
        <mxCell id="Ydeme7hIcuhJ-TMUcf0_-49" value="&lt;span style=&quot;font-size: 14px;&quot;&gt;Выбор уровня обучения&lt;/span&gt;" style="ellipse;whiteSpace=wrap;html=1;" vertex="1" parent="1">
          <mxGeometry x="510" y="-75" width="210" height="110" as="geometry" />
        </mxCell>
        <mxCell id="Ydeme7hIcuhJ-TMUcf0_-50" value="&lt;span style=&quot;font-size: 14px;&quot;&gt;Получение полных данных о выбранной программе обучения&lt;/span&gt;" style="ellipse;whiteSpace=wrap;html=1;" vertex="1" parent="1">
          <mxGeometry x="510" y="315" width="210" height="110" as="geometry" />
        </mxCell>
        <mxCell id="Ydeme7hIcuhJ-TMUcf0_-51" value="&lt;span style=&quot;font-size: 14px;&quot;&gt;Выбор университета&lt;/span&gt;" style="ellipse;whiteSpace=wrap;html=1;" vertex="1" parent="1">
          <mxGeometry x="510" y="56.420000000000016" width="210" height="110" as="geometry" />
        </mxCell>
        <mxCell id="Ydeme7hIcuhJ-TMUcf0_-52" value="&lt;span style=&quot;font-size: 14px;&quot;&gt;Просмотр в реальном &lt;br&gt;времени сведений об ошибках&lt;br&gt;Telegram API&lt;br&gt;&lt;/span&gt;" style="ellipse;whiteSpace=wrap;html=1;" vertex="1" parent="1">
          <mxGeometry x="510" y="575" width="210" height="110" as="geometry" />
        </mxCell>
        <mxCell id="Ydeme7hIcuhJ-TMUcf0_-53" value="&lt;span style=&quot;font-size: 14px;&quot;&gt;Выбор программы обучения&lt;/span&gt;" style="ellipse;whiteSpace=wrap;html=1;" vertex="1" parent="1">
          <mxGeometry x="510" y="185" width="210" height="110" as="geometry" />
        </mxCell>
        <mxCell id="Ydeme7hIcuhJ-TMUcf0_-54" value="&lt;span style=&quot;font-size: 14px;&quot;&gt;Переход в почтовое приложение или на веб-сайт для последующей связи с куратором&lt;/span&gt;" style="ellipse;whiteSpace=wrap;html=1;" vertex="1" parent="1">
          <mxGeometry x="510" y="445" width="210" height="110" as="geometry" />
        </mxCell>
        <mxCell id="Ydeme7hIcuhJ-TMUcf0_-55" value="&lt;span style=&quot;font-size: 14px;&quot;&gt;Переход на веб-сайт проекта&lt;/span&gt;" style="ellipse;whiteSpace=wrap;html=1;" vertex="1" parent="1">
          <mxGeometry x="510" y="-335" width="210" height="110" as="geometry" />
        </mxCell>
        <mxCell id="Ydeme7hIcuhJ-TMUcf0_-57" value="&lt;span style=&quot;font-size: 14px;&quot;&gt;Просмотр сведений о полученных карточках направлений&lt;/span&gt;" style="ellipse;whiteSpace=wrap;html=1;" vertex="1" parent="1">
          <mxGeometry x="510" y="850" width="210" height="110" as="geometry" />
        </mxCell>
        <mxCell id="Ydeme7hIcuhJ-TMUcf0_-58" value="&lt;span style=&quot;font-size: 14px;&quot;&gt;Ручной запуск парсера&lt;/span&gt;" style="ellipse;whiteSpace=wrap;html=1;" vertex="1" parent="1">
          <mxGeometry x="510" y="710" width="210" height="110" as="geometry" />
        </mxCell>
        <mxCell id="Ydeme7hIcuhJ-TMUcf0_-61" value="&lt;span style=&quot;font-size: 14px;&quot;&gt;Переход на веб-сайт проекта&lt;/span&gt;" style="ellipse;whiteSpace=wrap;html=1;" vertex="1" parent="1">
          <mxGeometry x="510" y="-335" width="210" height="110" as="geometry" />
        </mxCell>
        <mxCell id="Ydeme7hIcuhJ-TMUcf0_-62" value="&lt;span style=&quot;font-size: 14px;&quot;&gt;Переход на веб-страницу прохождения тестирования на знание русского языка&lt;/span&gt;" style="ellipse;whiteSpace=wrap;html=1;" vertex="1" parent="1">
          <mxGeometry x="510" y="-205" width="210" height="110" as="geometry" />
        </mxCell>
        <mxCell id="Ydeme7hIcuhJ-TMUcf0_-63" value="&lt;span style=&quot;font-size: 14px;&quot;&gt;Выбор уровня обучения&lt;/span&gt;" style="ellipse;whiteSpace=wrap;html=1;" vertex="1" parent="1">
          <mxGeometry x="510" y="-75" width="210" height="110" as="geometry" />
        </mxCell>
        <mxCell id="Ydeme7hIcuhJ-TMUcf0_-64" value="&lt;font style=&quot;font-size: 14px;&quot;&gt;Установка пароля при первом запуске ИС&lt;/font&gt;" style="ellipse;whiteSpace=wrap;html=1;" vertex="1" parent="1">
          <mxGeometry x="510" y="-335" width="210" height="110" as="geometry" />
        </mxCell>
        <mxCell id="Ydeme7hIcuhJ-TMUcf0_-65" value="&lt;span style=&quot;font-size: 14px;&quot;&gt;Смена существующего пароля на запуск&lt;/span&gt;" style="ellipse;whiteSpace=wrap;html=1;" vertex="1" parent="1">
          <mxGeometry x="510" y="-205" width="210" height="110" as="geometry" />
        </mxCell>
        <mxCell id="Ydeme7hIcuhJ-TMUcf0_-66" value="&lt;span style=&quot;font-size: 14px;&quot;&gt;Отключение запроса пароля&lt;br&gt;на запуск&lt;/span&gt;" style="ellipse;whiteSpace=wrap;html=1;" vertex="1" parent="1">
          <mxGeometry x="510" y="-75" width="210" height="110" as="geometry" />
        </mxCell>
        <mxCell id="Ydeme7hIcuhJ-TMUcf0_-67" value="&lt;span style=&quot;font-size: 14px;&quot;&gt;Запуск бота&lt;/span&gt;" style="ellipse;whiteSpace=wrap;html=1;" vertex="1" parent="1">
          <mxGeometry x="510" y="185" width="210" height="110" as="geometry" />
        </mxCell>
        <mxCell id="Ydeme7hIcuhJ-TMUcf0_-68" value="&lt;span style=&quot;font-size: 14px;&quot;&gt;Вход по паролю, если включен его запрос&lt;/span&gt;" style="ellipse;whiteSpace=wrap;html=1;" vertex="1" parent="1">
          <mxGeometry x="510" y="56.420000000000016" width="210" height="110" as="geometry" />
        </mxCell>
        <mxCell id="Ydeme7hIcuhJ-TMUcf0_-69" value="&lt;span style=&quot;font-size: 14px;&quot;&gt;Остановка бота&lt;/span&gt;" style="ellipse;whiteSpace=wrap;html=1;" vertex="1" parent="1">
          <mxGeometry x="510" y="315" width="210" height="110" as="geometry" />
        </mxCell>
        <mxCell id="Ydeme7hIcuhJ-TMUcf0_-70" value="&lt;span style=&quot;font-size: 14px;&quot;&gt;Просмотр в реальном времени полученных ботом сообщений&lt;/span&gt;" style="ellipse;whiteSpace=wrap;html=1;" vertex="1" parent="1">
          <mxGeometry x="510" y="445" width="210" height="110" as="geometry" />
        </mxCell>
        <mxCell id="Ydeme7hIcuhJ-TMUcf0_-71" value="&lt;span style=&quot;font-size: 14px;&quot;&gt;Установка URL сайта, к которого парсер будет собирать данные&lt;/span&gt;" style="ellipse;whiteSpace=wrap;html=1;" vertex="1" parent="1">
          <mxGeometry x="730" y="640" width="210" height="110" as="geometry" />
        </mxCell>
        <mxCell id="Ydeme7hIcuhJ-TMUcf0_-72" value="&lt;span style=&quot;font-size: 14px;&quot;&gt;Установка пути для экспортирующихся отчетов&lt;/span&gt;" style="ellipse;whiteSpace=wrap;html=1;" vertex="1" parent="1">
          <mxGeometry x="730" y="915" width="210" height="110" as="geometry" />
        </mxCell>
        <mxCell id="Ydeme7hIcuhJ-TMUcf0_-73" value="&lt;span style=&quot;font-size: 14px;&quot;&gt;Установка токена бота, к которому будет подключаться ИС&lt;/span&gt;" style="ellipse;whiteSpace=wrap;html=1;" vertex="1" parent="1">
          <mxGeometry x="730" y="775" width="210" height="110" as="geometry" />
        </mxCell>
        <mxCell id="Ydeme7hIcuhJ-TMUcf0_-74" value="&lt;span style=&quot;font-size: 14px;&quot;&gt;Умный поиск по названию&lt;br&gt;направления среди карточек направлений&lt;/span&gt;" style="ellipse;whiteSpace=wrap;html=1;" vertex="1" parent="1">
          <mxGeometry x="730" y="-270" width="210" height="110" as="geometry" />
        </mxCell>
        <mxCell id="Ydeme7hIcuhJ-TMUcf0_-75" value="&lt;span style=&quot;font-size: 14px;&quot;&gt;Умный поиск по названию университета среди карточек направлений&lt;/span&gt;" style="ellipse;whiteSpace=wrap;html=1;" vertex="1" parent="1">
          <mxGeometry x="730" y="-140" width="210" height="110" as="geometry" />
        </mxCell>
        <mxCell id="Ydeme7hIcuhJ-TMUcf0_-76" value="&lt;span style=&quot;font-size: 14px;&quot;&gt;Сортировка таблицы с карточками направлений&lt;/span&gt;" style="ellipse;whiteSpace=wrap;html=1;" vertex="1" parent="1">
          <mxGeometry x="730" y="-10" width="210" height="110" as="geometry" />
        </mxCell>
        <mxCell id="Ydeme7hIcuhJ-TMUcf0_-77" value="&lt;font style=&quot;font-size: 13px;&quot;&gt;Умный поиск по названию университета среди статистики направлений по университетам&lt;/font&gt;" style="ellipse;whiteSpace=wrap;html=1;" vertex="1" parent="1">
          <mxGeometry x="730" y="250" width="210" height="110" as="geometry" />
        </mxCell>
        <mxCell id="Ydeme7hIcuhJ-TMUcf0_-78" value="&lt;span style=&quot;font-size: 14px;&quot;&gt;Просмотр статистики &lt;br&gt;программ по университетам&lt;/span&gt;" style="ellipse;whiteSpace=wrap;html=1;" vertex="1" parent="1">
          <mxGeometry x="730" y="121.42000000000002" width="210" height="110" as="geometry" />
        </mxCell>
        <mxCell id="Ydeme7hIcuhJ-TMUcf0_-79" value="&lt;font style=&quot;font-size: 13px;&quot;&gt;Умный поиск по количеству направлений среди статистики направлений по университетам&lt;/font&gt;" style="ellipse;whiteSpace=wrap;html=1;" vertex="1" parent="1">
          <mxGeometry x="730" y="380" width="210" height="110" as="geometry" />
        </mxCell>
        <mxCell id="Ydeme7hIcuhJ-TMUcf0_-80" value="&lt;span style=&quot;font-size: 14px;&quot;&gt;Сортировка таблицы со статистикой направлений по университетам&lt;/span&gt;" style="ellipse;whiteSpace=wrap;html=1;" vertex="1" parent="1">
          <mxGeometry x="730" y="510" width="210" height="110" as="geometry" />
        </mxCell>
        <mxCell id="Ydeme7hIcuhJ-TMUcf0_-101" value="&lt;font style=&quot;font-size: 14px;&quot;&gt;Просмотр журнала парсера в реальном времени&lt;/font&gt;" style="ellipse;whiteSpace=wrap;html=1;" vertex="1" parent="1">
          <mxGeometry x="510" y="990" width="210" height="110" as="geometry" />
        </mxCell>
        <mxCell id="Ydeme7hIcuhJ-TMUcf0_-102" value="&lt;span style=&quot;font-size: 14px;&quot;&gt;Установка пути для файлов журналов&lt;/span&gt;" style="ellipse;whiteSpace=wrap;html=1;" vertex="1" parent="1">
          <mxGeometry x="730" y="1059" width="210" height="110" as="geometry" />
        </mxCell>
      </root>
    </mxGraphModel>
  </diagram>
</mxfile>
